<?xml version="1.0" encoding="UTF-8"?>
<!-- Do not edit this file with editors other than diagrams.net -->
<!DOCTYPE svg PUBLIC "-//W3C//DTD SVG 1.1//EN" "http://www.w3.org/Graphics/SVG/1.1/DTD/svg11.dtd">
<svg xmlns="http://www.w3.org/2000/svg" xmlns:xlink="http://www.w3.org/1999/xlink" version="1.1" width="647px" height="1137px" viewBox="-0.5 -0.5 647 1137" content="&lt;mxfile host=&quot;drawio-plugin&quot; modified=&quot;2023-02-19T04:23:50.122Z&quot; agent=&quot;5.0 (Macintosh; Intel Mac OS X 10_15_7) AppleWebKit/537.36 (KHTML, like Gecko) Chrome/97.0.4692.45 Safari/537.36&quot; etag=&quot;KMSw5D87mSR2BiKk0gle&quot; version=&quot;15.5.4&quot; type=&quot;embed&quot;&gt;&lt;diagram id=&quot;23iRSUPoRavnBvh4doch&quot; name=&quot;Page-1&quot;&gt;7V1dc+I2FP01PLbjD2zDI3HYlhmWZMK2nembghVQayxqxCbZX18ZSwZbkgPYFjRVJpOJhWxsnSvp3HOvpZ4brt9+ScFm9RVHMO45VvTWc+97jjOw+/RvVvCeF9iDPitZpijKy6xDwRz9gKwiL92hCG5ZWV5EMI4J2pQLFzhJ4IKUykCa4tdytRccR6WCDVhCoWC+ALFY+geKyIo9lxMcyn+FaLni32z7w/yTZ7D4e5niXcK+r+e4L/uf/OM14NdiD7pdgQi/HhW5454bphiT/L/1WwjjrG3LzfZF8Wlx3ylMyCknOPkJ30G8Y48+et6SFCzIOCGIvLO7JO+8ZbavaB2DhB7dveCEzNknFj1erFAcTcE73mVfvSW0KfjR3Qqn6AetD2L6kU0L6McpYcA7fnY1FMchjnG6/x43GI/8sVU6c55dkX1XCrf03Ef+nHal6Ct4K1Wcgi3hd4njGGy26Hl/39mJa5AuUXKHCcFrVil7tKObsfY/+7tO8d9Q9glrR5gS+KbEwi4Qpj0H4jUkKW1hi53g2n5+Cus1Pw3yw9eDBdp9ZjerY+uzWOcCzOqXxaUPyNN/GPhyQ3AFQ/gp/5QakDuif6c4WQrWQB+W1DaLClUQo2VCy2L4kl0gazdEu9+IFRO8yS67AQuULKf7Ovf9Q8kTe/isCNNzX+J9H1qhKIJJBjomgIDnwjI3GCVk3zjeHf2lbRhaP3s9j95SSI/twzH9zaqnFP0k6wdoDx2k5vMKMxNSWsZJ+Dty/Bnejn8a3rxeE7j7UrgjQGCYQvr3gPuEtgOgD2Cg7xB6z9EHvaeEns7j6AUZ7PViH5w4zLeBPedXR1jCiDIfdkgbYIWXOAHx+FB6t6czMGKNeqgzxRlc+yn0L0jIO5vNwY7gbN4maz7XwyQaZaSMHj7HOJvDs6IvKOYVVOZy6TScPVP9JEybAO/SBavFWpZSkiWsxyyFMSDoe/nqMkT2p9KnBu9HFZhBHq78mBUcGECBD+fNfoW9Veq7rl1Xn/6T38HBNopHOclcfGGoCOkwscSp4YUaeWExGhTelHXaiMFHliYjRiCdLRKwhsUsMScpMtyw6STh3ww3HMgJAtwuUrQhCCcGeY3I66SGti1A/5jiaLeg4zkgu60Z9TWqAc4VR31bogv9PppMR3fTsenuzbq7rcD9CiO9Lao+95N5+DD7Npn9Nr43SHeKtNaRfSiAaRw/WsTEkKt7fl5Q9fy8Y3hFz8/z6uo39vxsUSViTOAJfkfw1TABfUzAsy5kAq0EBmxRBMjcAYJIbFzAlucL73aYgdzvN07glbDXyhXkAkBKp78MZxMP1AW6zsgADwvpJYiq1vuQOJ5vYZcRRO6EX50g9rkSy2zDZYxeRRD9CqE8t77dr6/vBl5d/cYElD/uzdkj3sDk2wolJZOs54Aqk9xzXX7dCIE1TiJ26f1HJXs/0GLbyb/7+LA961aokedZt2gug4r5uhWVKr8tdlaN3dGOULqQ41UulD+LcKFz+5tb+R7XGtTfF5815fWb94fBLfWHMyz3tK5Tb93XHO1VIk63w73rl83JGdr1w3F9/ebmdxX9qKH5nT5y37D5KShix+Y3HFZGM7/W/KryVaV+c/NjlxflKMEsjRClLSRVTOIfOihWCzEpfr9tpSIkODcS45Eep6pZcgu4ggTlOFK8m0pQBvbzYdepPiky0TcpWhz6+R1a3sMFWtPR2oDeEeha1Sd5kGFRZBsy3JXphwb1llAvYkY6YHdFWpfBvgUx3IbUeSAw7Z2vNxvYL4CdQ6EFdjmT27IcMwZ4feaZQb4t5D2NnM6Vc7p0n1NwgH5OvV/Hj7NH5+kG/pIUD2zMoAMzGGjkeO5NifufVMx0GZEuha4URnCymnTy+4U3FU68HOH/FLr9puheFpmsvLYcuPWpax/Ub6wVuqID+ZBGMJ0QuBaM0qiF2tRC3zqRYrbzPrv8DecNV43LJPM0XmESWVSWkPe5m5ANXfn7zf/sAFvQwuQv6YJdp2zoyhUknI38BeYP+ZEBvUPQdcqG7u1GpZkPWhOOViW2HYiEX6KX/rV9hzbIpYQNOnKWcG5iUN8v0w3uz7acF1S9Xy9w629raDWq77KVs5R5e0O7UX3eN5WJJcOgrn5jts4XBrvBLvw5HEU+9h53ZdUQ3nVOk1sypcCt7wof1G9senyE+NymZ5VN77JM1fZMzwsamt7JCpQYW5LTPyMBdCYBOJU0ssCXOIKBL5LDIijRyALkYaZmmQTGL1CZgkp9rNEAZNC3srqdPMxUCTDuh4NzwosG+wuxlwkBnWGvyB8C72uYHAl//NgA3yHwMjGgK+AHcuC3K7TZHK1p+Cd1zO8Bgd9Qljdq0O8QfWkuUWfwD6XwYx76kWYXHAWGzkkwMBZxqUXI0oy6sgjPxKA79u8k62Z6ujIMuIdwg+j+t7VfGardaL++U84E8IYVzVah/Z4rPAnf069/lzPg+xdcWN926uv37aCufnNNVYyFqeiuET+6W7bHKSvtevMf+vIFXJgbNDnwYbN8Syu853aWb+3Ll2+hhGN35P8a3UsT9DqTIPpyH6iaWJ+PAUb50oC+zmwIT/KSdC3UZvLXNvm7Q+/Eyd+1WrAEMfIxCsPx4zezpmvT/q7yb68w0fOZ5bi/j2f3k9kvBuROQda6W49kiebxbGI6cscYa524xVz18dPTw5OBuFOItb7qzNP6jFzZslzpMaHj6is0Bm5ZZbQtt34JReEEJgsqZcP6+o1lQ0+UjEZRREm38Rw0eg5uRRwe8q1lP/Qc2siZ8hTiUW4HtlEN252gFMmQ13Am5NIRA94xwOsEXqeD4Yuq0X7pneN35QzoGkDX6XEM5KBnQrHZ1EEr6lqdkIE8I/oH2ixwZIDXC7zOFZd8Efi67GdD7zsMDJRzRQIu8Gmh974oGYdP45GJCzTu7b4C9itQeV+UjB9HE4Nwtwhr5eyiYDz/dfL4aLpxxyDr5OhDcc6+H08nv4+fDMwdw6w3MiCZk6cPcwNy1yBrJeDiqkRhxo0N/9bMv4flfVL6/ApaknJ9MTF7Nv7D9POG/fx2ts30xRBaOJqF4+nUDOcdw6yVf4tRsvBh9mXy9NXA3DHMWlXyT7LnWu9WF4jhoe3S/oNNN7w6uROLEc+MkhkydjUyxtdG+7BzBy1sJxUo4p67LW2UozUjw6LAjOuNxvXhzbC04KT9J2r8MwN9m9DrZG6D231r/HNM6YFk5VAV/t3mY9r98vKBflC/Lv0H9RunVwZiWEY5txjOoYtzBCe/lV1dUPaimUe+Kv0LSrdkdulGlmbiUVlCcDvL0gfyZeljYIDXD7xOxhGImm8GPFwDFBvUdaKuUzoKFMtvrLJ3bQzqGlHXGssN5K9PLCgLk64/lwtOZuk5HXagM9wbyN+mgEnWblFhCXcYxxAkBvlukde5w+Xgf7GfwRUFBr62c0lgULh8rccMBv+LJSWvia5kywDVEjsdb2vINxcqdp+o31jFq2ysUqnffLeKT7Jn6s2aniwYqZpZOlYuK3vufKhc1tdvbHpD15ie/jntKqJ50Qv4Llpsr3aV6VXr+2x7rAtNjx6mGJPj6inYrL7iCGY1/gU=&lt;/diagram&gt;&lt;/mxfile&gt;" style="background-color: rgb(255, 255, 255);"><defs><clipPath id="mx-clip-222-31-132-26-0"><rect x="222" y="31" width="132" height="26"/></clipPath><clipPath id="mx-clip-222-57-132-26-0"><rect x="222" y="57" width="132" height="26"/></clipPath><clipPath id="mx-clip-222-83-132-26-0"><rect x="222" y="83" width="132" height="26"/></clipPath><clipPath id="mx-clip-46-219-132-26-0"><rect x="46" y="219" width="132" height="26"/></clipPath><clipPath id="mx-clip-46-245-132-26-0"><rect x="46" y="245" width="132" height="26"/></clipPath><clipPath id="mx-clip-226-219-132-26-0"><rect x="226" y="219" width="132" height="26"/></clipPath><clipPath id="mx-clip-226-245-132-26-0"><rect x="226" y="245" width="132" height="26"/></clipPath><clipPath id="mx-clip-406-219-132-26-0"><rect x="406" y="219" width="132" height="26"/></clipPath><clipPath id="mx-clip-406-245-132-26-0"><rect x="406" y="245" width="132" height="26"/></clipPath><clipPath id="mx-clip-406-271-132-26-0"><rect x="406" y="271" width="132" height="26"/></clipPath><clipPath id="mx-clip-226-377-132-26-0"><rect x="226" y="377" width="132" height="26"/></clipPath><clipPath id="mx-clip-226-403-132-26-0"><rect x="226" y="403" width="132" height="26"/></clipPath><clipPath id="mx-clip-226-429-132-26-0"><rect x="226" y="429" width="132" height="26"/></clipPath><clipPath id="mx-clip-226-455-132-26-0"><rect x="226" y="455" width="132" height="26"/></clipPath><clipPath id="mx-clip-226-481-132-26-0"><rect x="226" y="481" width="132" height="26"/></clipPath><clipPath id="mx-clip-226-507-132-26-0"><rect x="226" y="507" width="132" height="26"/></clipPath><clipPath id="mx-clip-226-533-132-26-0"><rect x="226" y="533" width="132" height="26"/></clipPath><clipPath id="mx-clip-226-639-132-26-0"><rect x="226" y="639" width="132" height="26"/></clipPath><clipPath id="mx-clip-226-665-132-26-0"><rect x="226" y="665" width="132" height="26"/></clipPath><clipPath id="mx-clip-226-691-132-26-0"><rect x="226" y="691" width="132" height="26"/></clipPath><clipPath id="mx-clip-205-805-168-26-0"><rect x="205" y="805" width="168" height="26"/></clipPath><clipPath id="mx-clip-205-831-168-26-0"><rect x="205" y="831" width="168" height="26"/></clipPath><clipPath id="mx-clip-205-857-168-26-0"><rect x="205" y="857" width="168" height="26"/></clipPath><clipPath id="mx-clip-205-883-168-26-0"><rect x="205" y="883" width="168" height="26"/></clipPath><clipPath id="mx-clip-205-909-168-26-0"><rect x="205" y="909" width="168" height="26"/></clipPath><clipPath id="mx-clip-427-639-132-26-0"><rect x="427" y="639" width="132" height="26"/></clipPath><clipPath id="mx-clip-427-665-132-26-0"><rect x="427" y="665" width="132" height="26"/></clipPath><clipPath id="mx-clip-427-691-132-26-0"><rect x="427" y="691" width="132" height="26"/></clipPath><clipPath id="mx-clip-427-434-132-26-0"><rect x="427" y="434" width="132" height="26"/></clipPath><clipPath id="mx-clip-427-460-132-26-0"><rect x="427" y="460" width="132" height="26"/></clipPath><clipPath id="mx-clip-427-486-132-26-0"><rect x="427" y="486" width="132" height="26"/></clipPath><clipPath id="mx-clip-427-512-132-26-0"><rect x="427" y="512" width="132" height="26"/></clipPath><clipPath id="mx-clip-223-1008-132-26-0"><rect x="223" y="1008" width="132" height="26"/></clipPath><clipPath id="mx-clip-223-1034-132-26-0"><rect x="223" y="1034" width="132" height="26"/></clipPath><clipPath id="mx-clip-223-1060-132-26-0"><rect x="223" y="1060" width="132" height="26"/></clipPath><clipPath id="mx-clip-223-1086-132-26-0"><rect x="223" y="1086" width="132" height="26"/></clipPath><clipPath id="mx-clip-223-1112-132-26-0"><rect x="223" y="1112" width="132" height="26"/></clipPath><clipPath id="mx-clip-430-792-132-26-0"><rect x="430" y="792" width="132" height="26"/></clipPath><clipPath id="mx-clip-430-818-132-26-0"><rect x="430" y="818" width="132" height="26"/></clipPath><clipPath id="mx-clip-430-844-132-26-0"><rect x="430" y="844" width="132" height="26"/></clipPath><clipPath id="mx-clip-430-870-132-26-0"><rect x="430" y="870" width="132" height="26"/></clipPath><clipPath id="mx-clip-430-896-132-26-0"><rect x="430" y="896" width="132" height="26"/></clipPath><clipPath id="mx-clip-4-460-132-26-0"><rect x="4" y="460" width="132" height="26"/></clipPath><clipPath id="mx-clip-4-486-132-26-0"><rect x="4" y="486" width="132" height="26"/></clipPath><clipPath id="mx-clip-4-512-132-26-0"><rect x="4" y="512" width="132" height="26"/></clipPath><clipPath id="mx-clip-4-612-132-26-0"><rect x="4" y="612" width="132" height="26"/></clipPath><clipPath id="mx-clip-4-638-132-26-0"><rect x="4" y="638" width="132" height="26"/></clipPath><clipPath id="mx-clip-4-739-132-26-0"><rect x="4" y="739" width="132" height="26"/></clipPath><clipPath id="mx-clip-4-765-132-26-0"><rect x="4" y="765" width="132" height="26"/></clipPath><clipPath id="mx-clip-4-791-132-26-0"><rect x="4" y="791" width="132" height="26"/></clipPath><clipPath id="mx-clip-4-817-132-26-0"><rect x="4" y="817" width="132" height="26"/></clipPath><clipPath id="mx-clip-4-843-132-26-0"><rect x="4" y="843" width="132" height="26"/></clipPath><clipPath id="mx-clip-4-869-132-26-0"><rect x="4" y="869" width="132" height="26"/></clipPath></defs><g><path d="M 218 26 L 218 0 L 358 0 L 358 26" fill="#7ea6e0" stroke="#000000" stroke-miterlimit="10" pointer-events="all"/><path d="M 218 26 L 218 104 L 358 104 L 358 26" fill="none" stroke="#000000" stroke-miterlimit="10" pointer-events="none"/><path d="M 218 26 L 358 26" fill="none" stroke="#000000" stroke-miterlimit="10" pointer-events="none"/><g fill="#000000" font-family="Helvetica" pointer-events="none" text-anchor="middle" font-size="12px"><text x="287.5" y="17.5">AbstractEntity</text></g><rect x="218" y="26" width="140" height="26" fill="#7ea6e0" stroke="#000000" pointer-events="none"/><g fill="#000000" font-family="Helvetica" pointer-events="none" clip-path="url(#mx-clip-222-31-132-26-0)" font-size="12px"><text x="223.5" y="43.5">- id : Long</text></g><rect x="218" y="52" width="140" height="26" fill="#7ea6e0" stroke="#000000" pointer-events="none"/><g fill="#000000" font-family="Helvetica" pointer-events="none" clip-path="url(#mx-clip-222-57-132-26-0)" font-size="12px"><text x="223.5" y="69.5">- dateCreated : Instant</text></g><rect x="218" y="78" width="140" height="26" fill="#7ea6e0" stroke="#000000" pointer-events="none"/><g fill="#000000" font-family="Helvetica" pointer-events="none" clip-path="url(#mx-clip-222-83-132-26-0)" font-size="12px"><text x="223.5" y="95.5">- dateModified : Instant</text></g><path d="M 112 188 L 112 168 L 233 168 L 233 112.12" fill="none" stroke="#000000" stroke-miterlimit="10" pointer-events="none"/><path d="M 233 105.12 L 236.5 112.12 L 229.5 112.12 Z" fill="#000000" stroke="#000000" stroke-miterlimit="10" pointer-events="none"/><path d="M 42 214 L 42 188 L 182 188 L 182 214" fill="#7ea6e0" stroke="#000000" stroke-miterlimit="10" pointer-events="none"/><path d="M 42 214 L 42 266 L 182 266 L 182 214" fill="none" stroke="#000000" stroke-miterlimit="10" pointer-events="none"/><path d="M 42 214 L 182 214" fill="none" stroke="#000000" stroke-miterlimit="10" pointer-events="none"/><g fill="#000000" font-family="Helvetica" pointer-events="none" text-anchor="middle" font-size="12px"><text x="111.5" y="205.5">Category</text></g><rect x="42" y="214" width="140" height="26" fill="#7ea6e0" stroke="#000000" pointer-events="none"/><g fill="#000000" font-family="Helvetica" pointer-events="none" clip-path="url(#mx-clip-46-219-132-26-0)" font-size="12px"><text x="47.5" y="231.5">- name : String</text></g><rect x="42" y="240" width="140" height="26" fill="#7ea6e0" stroke="#000000" pointer-events="none"/><g fill="#000000" font-family="Helvetica" pointer-events="none" clip-path="url(#mx-clip-46-245-132-26-0)" font-size="12px"><text x="47.5" y="257.5">- description : String</text></g><path d="M 222 214 L 222 188 L 362 188 L 362 214" fill="#7ea6e0" stroke="#000000" stroke-miterlimit="10" pointer-events="none"/><path d="M 222 214 L 222 266 L 362 266 L 362 214" fill="none" stroke="#000000" stroke-miterlimit="10" pointer-events="none"/><path d="M 222 214 L 362 214" fill="none" stroke="#000000" stroke-miterlimit="10" pointer-events="none"/><g fill="#000000" font-family="Helvetica" pointer-events="none" text-anchor="middle" font-size="12px"><text x="291.5" y="205.5">ProductStatus</text></g><rect x="222" y="214" width="140" height="26" fill="#7ea6e0" stroke="#000000" pointer-events="none"/><g fill="#000000" font-family="Helvetica" pointer-events="none" clip-path="url(#mx-clip-226-219-132-26-0)" font-size="12px"><text x="227.5" y="231.5">AVAILABLE</text></g><rect x="222" y="240" width="140" height="26" fill="#7ea6e0" stroke="#000000" pointer-events="none"/><g fill="#000000" font-family="Helvetica" pointer-events="none" clip-path="url(#mx-clip-226-245-132-26-0)" font-size="12px"><text x="227.5" y="257.5">DISCONTINUED</text></g><path d="M 472 188 L 472 173 L 257 173 L 257 112.12" fill="none" stroke="#000000" stroke-miterlimit="10" pointer-events="none"/><path d="M 257 105.12 L 260.5 112.12 L 253.5 112.12 Z" fill="#000000" stroke="#000000" stroke-miterlimit="10" pointer-events="none"/><path d="M 402 214 L 402 188 L 542 188 L 542 214" fill="#7ea6e0" stroke="#000000" stroke-miterlimit="10" pointer-events="none"/><path d="M 402 214 L 402 292 L 542 292 L 542 214" fill="none" stroke="#000000" stroke-miterlimit="10" pointer-events="none"/><path d="M 402 214 L 542 214" fill="none" stroke="#000000" stroke-miterlimit="10" pointer-events="none"/><g fill="#000000" font-family="Helvetica" pointer-events="none" text-anchor="middle" font-size="12px"><text x="471.5" y="205.5">ProductReview</text></g><rect x="402" y="214" width="140" height="26" fill="#7ea6e0" stroke="#000000" pointer-events="none"/><g fill="#000000" font-family="Helvetica" pointer-events="none" clip-path="url(#mx-clip-406-219-132-26-0)" font-size="12px"><text x="407.5" y="231.5">- title : String</text></g><rect x="402" y="240" width="140" height="26" fill="#7ea6e0" stroke="#000000" pointer-events="none"/><g fill="#000000" font-family="Helvetica" pointer-events="none" clip-path="url(#mx-clip-406-245-132-26-0)" font-size="12px"><text x="407.5" y="257.5">- description : String</text></g><rect x="402" y="266" width="140" height="26" fill="#7ea6e0" stroke="#000000" pointer-events="none"/><g fill="#000000" font-family="Helvetica" pointer-events="none" clip-path="url(#mx-clip-406-271-132-26-0)" font-size="12px"><text x="407.5" y="283.5">- rating : Long</text></g><path d="M 329 346 L 329 327 L 572 327 L 572 157 L 277 157 L 277 112.12" fill="none" stroke="#000000" stroke-miterlimit="10" pointer-events="none"/><path d="M 277 105.12 L 280.5 112.12 L 273.5 112.12 Z" fill="#000000" stroke="#000000" stroke-miterlimit="10" pointer-events="none"/><path d="M 244 332.01 L 244 316 L 120 316 L 120 268.24" fill="none" stroke="#000000" stroke-miterlimit="10" pointer-events="none"/><path d="M 244 345.01 L 240.18 338.51 L 244 332.01 L 247.82 338.51 Z" fill="#000000" stroke="#000000" stroke-miterlimit="10" pointer-events="none"/><path d="M 124.33 280.12 L 120 267.12 L 115.67 280.12" fill="none" stroke="#000000" stroke-miterlimit="10" pointer-events="none"/><path d="M 270 332.01 L 270 299 L 270 268.24" fill="none" stroke="#000000" stroke-miterlimit="10" pointer-events="none"/><path d="M 270 345.01 L 266.18 338.51 L 270 332.01 L 273.82 338.51 Z" fill="#000000" stroke="#000000" stroke-miterlimit="10" pointer-events="none"/><path d="M 274.33 280.12 L 270 267.12 L 265.67 280.12" fill="none" stroke="#000000" stroke-miterlimit="10" pointer-events="none"/><path d="M 301 332.01 L 301 314 L 472 314 L 472 294.24" fill="none" stroke="#000000" stroke-miterlimit="10" pointer-events="none"/><path d="M 301 345.01 L 297.18 338.51 L 301 332.01 L 304.82 338.51 Z" fill="none" stroke="#000000" stroke-miterlimit="10" pointer-events="none"/><path d="M 476.33 306.12 L 472 293.12 L 467.67 306.12" fill="none" stroke="#000000" stroke-miterlimit="10" pointer-events="none"/><path d="M 222 372 L 222 346 L 362 346 L 362 372" fill="#7ea6e0" stroke="#000000" stroke-miterlimit="10" pointer-events="none"/><path d="M 222 372 L 222 554 L 362 554 L 362 372" fill="none" stroke="#000000" stroke-miterlimit="10" pointer-events="none"/><path d="M 222 372 L 362 372" fill="none" stroke="#000000" stroke-miterlimit="10" pointer-events="none"/><g fill="#000000" font-family="Helvetica" pointer-events="none" text-anchor="middle" font-size="12px"><text x="291.5" y="363.5">Product</text></g><rect x="222" y="372" width="140" height="26" fill="#7ea6e0" stroke="none" pointer-events="none"/><g fill="#000000" font-family="Helvetica" pointer-events="none" clip-path="url(#mx-clip-226-377-132-26-0)" font-size="12px"><text x="227.5" y="389.5">- name : String</text></g><rect x="222" y="398" width="140" height="26" fill="#7ea6e0" stroke="none" pointer-events="none"/><g fill="#000000" font-family="Helvetica" pointer-events="none" clip-path="url(#mx-clip-226-403-132-26-0)" font-size="12px"><text x="227.5" y="415.5">- description : String</text></g><rect x="222" y="424" width="140" height="26" fill="#7ea6e0" stroke="none" pointer-events="none"/><g fill="#000000" font-family="Helvetica" pointer-events="none" clip-path="url(#mx-clip-226-429-132-26-0)" font-size="12px"><text x="227.5" y="441.5">- price : BigDecimal</text></g><rect x="222" y="450" width="140" height="26" fill="#7ea6e0" stroke="none" pointer-events="none"/><g fill="#000000" font-family="Helvetica" pointer-events="none" clip-path="url(#mx-clip-226-455-132-26-0)" font-size="12px"><text x="227.5" y="467.5">- category : Category</text></g><rect x="222" y="476" width="140" height="26" fill="#7ea6e0" stroke="none" pointer-events="none"/><g fill="#000000" font-family="Helvetica" pointer-events="none" clip-path="url(#mx-clip-226-481-132-26-0)" font-size="12px"><text x="227.5" y="493.5">- salesCounter : Long</text></g><rect x="222" y="502" width="140" height="26" fill="#7ea6e0" stroke="none" pointer-events="none"/><g fill="#000000" font-family="Helvetica" pointer-events="none" clip-path="url(#mx-clip-226-507-132-26-0)" font-size="12px"><text x="227.5" y="519.5">- status : ProductStatus</text></g><rect x="222" y="528" width="140" height="26" fill="#7ea6e0" stroke="none" pointer-events="none"/><g fill="#000000" font-family="Helvetica" pointer-events="none" clip-path="url(#mx-clip-226-533-132-26-0)" font-size="12px"><text x="227.5" y="545.5">- reviews : Set&lt;Review&gt;</text></g><path d="M 292 594.01 L 292 578 L 292 584 L 292 556.24" fill="none" stroke="#000000" stroke-miterlimit="10" pointer-events="none"/><path d="M 292 607.01 L 288.18 600.51 L 292 594.01 L 295.82 600.51 Z" fill="#000000" stroke="#000000" stroke-miterlimit="10" pointer-events="none"/><path d="M 296.33 568.12 L 292 555.12 L 287.67 568.12" fill="none" stroke="#000000" stroke-miterlimit="10" pointer-events="none"/><path d="M 318 725.99 L 318 743 L 318 771.76" fill="none" stroke="#000000" stroke-miterlimit="10" pointer-events="none"/><path d="M 318 712.99 L 321.82 719.49 L 318 725.99 L 314.18 719.49 Z" fill="#000000" stroke="#000000" stroke-miterlimit="10" pointer-events="none"/><path d="M 311.5 759.88 L 318 772.88 L 324.5 759.88" fill="none" stroke="#000000" stroke-miterlimit="10" pointer-events="none"/><path d="M 222 634 L 222 608 L 362 608 L 362 634" fill="#7ea6e0" stroke="#000000" stroke-miterlimit="10" pointer-events="none"/><path d="M 222 634 L 222 712 L 362 712 L 362 634" fill="none" stroke="#000000" stroke-miterlimit="10" pointer-events="none"/><path d="M 222 634 L 362 634" fill="none" stroke="#000000" stroke-miterlimit="10" pointer-events="none"/><g fill="#000000" font-family="Helvetica" pointer-events="none" text-anchor="middle" font-size="12px"><text x="291.5" y="625.5">OrderItem</text></g><rect x="222" y="634" width="140" height="26" fill="#7ea6e0" stroke="#000000" pointer-events="none"/><g fill="#000000" font-family="Helvetica" pointer-events="none" clip-path="url(#mx-clip-226-639-132-26-0)" font-size="12px"><text x="227.5" y="651.5">- product : Product</text></g><rect x="222" y="660" width="140" height="26" fill="#7ea6e0" stroke="#000000" pointer-events="none"/><g fill="#000000" font-family="Helvetica" pointer-events="none" clip-path="url(#mx-clip-226-665-132-26-0)" font-size="12px"><text x="227.5" y="677.5">- quantity : Long</text></g><rect x="222" y="686" width="140" height="26" fill="#7ea6e0" stroke="#000000" pointer-events="none"/><g fill="#000000" font-family="Helvetica" pointer-events="none" clip-path="url(#mx-clip-226-691-132-26-0)" font-size="12px"><text x="227.5" y="703.5">- order : Order</text></g><path d="M 314 608 L 314 581 L 392 581 L 392 352 L 593 352 L 593 148 L 299 148 L 299 112.12" fill="none" stroke="#000000" stroke-miterlimit="10" pointer-events="none"/><path d="M 299 105.12 L 302.5 112.12 L 295.5 112.12 Z" fill="#000000" stroke="#000000" stroke-miterlimit="10" pointer-events="none"/><path d="M 265 760.01 L 265 741 L 265 714.24" fill="none" stroke="#000000" stroke-miterlimit="10" pointer-events="none"/><path d="M 265 773.01 L 261.18 766.51 L 265 760.01 L 268.82 766.51 Z" fill="#000000" stroke="#000000" stroke-miterlimit="10" pointer-events="none"/><path d="M 271.5 726.12 L 265 713.12 L 258.5 726.12" fill="none" stroke="#000000" stroke-miterlimit="10" pointer-events="none"/><path d="M 289 941.99 L 289 974.76" fill="none" stroke="#000000" stroke-miterlimit="10" pointer-events="none"/><path d="M 289 930.99 L 292.24 936.49 L 289 941.99 L 285.76 936.49 Z" fill="#000000" stroke="#000000" stroke-miterlimit="10" pointer-events="none"/><path d="M 283.5 964.88 L 289 975.88 L 294.5 964.88" fill="none" stroke="#000000" stroke-miterlimit="10" pointer-events="none"/><path d="M 201 800 L 201 774 L 377 774 L 377 800" fill="#7ea6e0" stroke="#000000" stroke-miterlimit="10" pointer-events="none"/><path d="M 201 800 L 201 930 L 377 930 L 377 800" fill="none" stroke="#000000" stroke-miterlimit="10" pointer-events="none"/><path d="M 201 800 L 377 800" fill="none" stroke="#000000" stroke-miterlimit="10" pointer-events="none"/><g fill="#000000" font-family="Helvetica" pointer-events="none" text-anchor="middle" font-size="12px"><text x="288.5" y="791.5">Order</text></g><rect x="201" y="800" width="176" height="26" fill="#7ea6e0" stroke="#000000" pointer-events="none"/><g fill="#000000" font-family="Helvetica" pointer-events="none" clip-path="url(#mx-clip-205-805-168-26-0)" font-size="12px"><text x="206.5" y="817.5">- price : BigDecimal</text></g><rect x="201" y="826" width="176" height="26" fill="#7ea6e0" stroke="#000000" pointer-events="none"/><g fill="#000000" font-family="Helvetica" pointer-events="none" clip-path="url(#mx-clip-205-831-168-26-0)" font-size="12px"><text x="206.5" y="843.5">- status : OrderStatus</text></g><rect x="201" y="852" width="176" height="26" fill="#7ea6e0" stroke="#000000" pointer-events="none"/><g fill="#000000" font-family="Helvetica" pointer-events="none" clip-path="url(#mx-clip-205-857-168-26-0)" font-size="12px"><text x="206.5" y="869.5">- payment : Payment</text></g><rect x="201" y="878" width="176" height="26" fill="#7ea6e0" stroke="#000000" pointer-events="none"/><g fill="#000000" font-family="Helvetica" pointer-events="none" clip-path="url(#mx-clip-205-883-168-26-0)" font-size="12px"><text x="206.5" y="895.5">- shipped : ZoneDateTime</text></g><rect x="201" y="904" width="176" height="26" fill="#7ea6e0" stroke="#000000" pointer-events="none"/><g fill="#000000" font-family="Helvetica" pointer-events="none" clip-path="url(#mx-clip-205-909-168-26-0)" font-size="12px"><text x="206.5" y="921.5">- orderItems : Set&lt;OrderItem&gt;</text></g><path d="M 493 594.01 L 493 535.24" fill="none" stroke="#000000" stroke-miterlimit="10" pointer-events="none"/><path d="M 493 607.01 L 489.18 600.51 L 493 594.01 L 496.82 600.51 Z" fill="#000000" stroke="#000000" stroke-miterlimit="10" pointer-events="none"/><path d="M 499.5 547.12 L 493 534.12 L 486.5 547.12" fill="none" stroke="#000000" stroke-miterlimit="10" pointer-events="none"/><path d="M 528 608 L 528 556 L 616 556 L 616 136 L 319 136 L 319 112.12" fill="none" stroke="#000000" stroke-miterlimit="10" pointer-events="none"/><path d="M 319 105.12 L 322.5 112.12 L 315.5 112.12 Z" fill="#000000" stroke="#000000" stroke-miterlimit="10" pointer-events="none"/><path d="M 423 634 L 423 608 L 563 608 L 563 634" fill="#7ea6e0" stroke="#000000" stroke-miterlimit="10" pointer-events="none"/><path d="M 423 634 L 423 712 L 563 712 L 563 634" fill="none" stroke="#000000" stroke-miterlimit="10" pointer-events="none"/><path d="M 423 634 L 563 634" fill="none" stroke="#000000" stroke-miterlimit="10" pointer-events="none"/><g fill="#000000" font-family="Helvetica" pointer-events="none" text-anchor="middle" font-size="12px"><text x="492.5" y="625.5">Payment</text></g><rect x="423" y="634" width="140" height="26" fill="#7ea6e0" stroke="#000000" pointer-events="none"/><g fill="#000000" font-family="Helvetica" pointer-events="none" clip-path="url(#mx-clip-427-639-132-26-0)" font-size="12px"><text x="428.5" y="651.5">- paymentId : String</text></g><rect x="423" y="660" width="140" height="26" fill="#7ea6e0" stroke="#000000" pointer-events="none"/><g fill="#000000" font-family="Helvetica" pointer-events="none" clip-path="url(#mx-clip-427-665-132-26-0)" font-size="12px"><text x="428.5" y="677.5">- amount : BigDecimal</text></g><rect x="423" y="686" width="140" height="26" fill="#7ea6e0" stroke="#000000" pointer-events="none"/><g fill="#000000" font-family="Helvetica" pointer-events="none" clip-path="url(#mx-clip-427-691-132-26-0)" font-size="12px"><text x="428.5" y="703.5">- status : PaymentStatus</text></g><path d="M 423 429 L 423 403 L 563 403 L 563 429" fill="#7ea6e0" stroke="#000000" stroke-miterlimit="10" pointer-events="none"/><path d="M 423 429 L 423 533 L 563 533 L 563 429" fill="none" stroke="#000000" stroke-miterlimit="10" pointer-events="none"/><path d="M 423 429 L 563 429" fill="none" stroke="#000000" stroke-miterlimit="10" pointer-events="none"/><g fill="#000000" font-family="Helvetica" pointer-events="none" text-anchor="middle" font-size="12px"><text x="492.5" y="420.5">PaymentStatus</text></g><rect x="423" y="429" width="140" height="26" fill="#7ea6e0" stroke="#000000" pointer-events="none"/><g fill="#000000" font-family="Helvetica" pointer-events="none" clip-path="url(#mx-clip-427-434-132-26-0)" font-size="12px"><text x="428.5" y="446.5">ACCEPTED</text></g><rect x="423" y="455" width="140" height="26" fill="#7ea6e0" stroke="#000000" pointer-events="none"/><g fill="#000000" font-family="Helvetica" pointer-events="none" clip-path="url(#mx-clip-427-460-132-26-0)" font-size="12px"><text x="428.5" y="472.5">PENDING</text></g><rect x="423" y="481" width="140" height="26" fill="#7ea6e0" stroke="#000000" pointer-events="none"/><g fill="#000000" font-family="Helvetica" pointer-events="none" clip-path="url(#mx-clip-427-486-132-26-0)" font-size="12px"><text x="428.5" y="498.5">DENIED</text></g><rect x="423" y="507" width="140" height="26" fill="#7ea6e0" stroke="#000000" pointer-events="none"/><g fill="#000000" font-family="Helvetica" pointer-events="none" clip-path="url(#mx-clip-427-512-132-26-0)" font-size="12px"><text x="428.5" y="524.5">ERROR</text></g><path d="M 359 1047 L 638 1047 L 638 125 L 338 125 L 338 112.12" fill="none" stroke="#000000" stroke-miterlimit="10" pointer-events="none"/><path d="M 338 105.12 L 341.5 112.12 L 334.5 112.12 Z" fill="#000000" stroke="#000000" stroke-miterlimit="10" pointer-events="none"/><path d="M 219 1003 L 219 977 L 359 977 L 359 1003" fill="#7ea6e0" stroke="#000000" stroke-miterlimit="10" pointer-events="none"/><path d="M 219 1003 L 219 1133 L 359 1133 L 359 1003" fill="none" stroke="#000000" stroke-miterlimit="10" pointer-events="none"/><path d="M 219 1003 L 359 1003" fill="none" stroke="#000000" stroke-miterlimit="10" pointer-events="none"/><g fill="#000000" font-family="Helvetica" pointer-events="none" text-anchor="middle" font-size="12px"><text x="288.5" y="994.5">Address</text></g><rect x="219" y="1003" width="140" height="26" fill="#7ea6e0" stroke="#000000" pointer-events="none"/><g fill="#000000" font-family="Helvetica" pointer-events="none" clip-path="url(#mx-clip-223-1008-132-26-0)" font-size="12px"><text x="224.5" y="1020.5">- address1 : String</text></g><rect x="219" y="1029" width="140" height="26" fill="#7ea6e0" stroke="#000000" pointer-events="none"/><g fill="#000000" font-family="Helvetica" pointer-events="none" clip-path="url(#mx-clip-223-1034-132-26-0)" font-size="12px"><text x="224.5" y="1046.5">- address2 : String</text></g><rect x="219" y="1055" width="140" height="26" fill="#7ea6e0" stroke="#000000" pointer-events="none"/><g fill="#000000" font-family="Helvetica" pointer-events="none" clip-path="url(#mx-clip-223-1060-132-26-0)" font-size="12px"><text x="224.5" y="1072.5">- city : String</text></g><rect x="219" y="1081" width="140" height="26" fill="#7ea6e0" stroke="#000000" pointer-events="none"/><g fill="#000000" font-family="Helvetica" pointer-events="none" clip-path="url(#mx-clip-223-1086-132-26-0)" font-size="12px"><text x="224.5" y="1098.5">- state : String</text></g><rect x="219" y="1107" width="140" height="26" fill="#7ea6e0" stroke="#000000" pointer-events="none"/><g fill="#000000" font-family="Helvetica" pointer-events="none" clip-path="url(#mx-clip-223-1112-132-26-0)" font-size="12px"><text x="224.5" y="1124.5">- zipcode : String</text></g><path d="M 426 787 L 426 761 L 566 761 L 566 787" fill="#7ea6e0" stroke="#000000" stroke-miterlimit="10" pointer-events="none"/><path d="M 426 787 L 426 917 L 566 917 L 566 787" fill="none" stroke="#000000" stroke-miterlimit="10" pointer-events="none"/><path d="M 426 787 L 566 787" fill="none" stroke="#000000" stroke-miterlimit="10" pointer-events="none"/><g fill="#000000" font-family="Helvetica" pointer-events="none" text-anchor="middle" font-size="12px"><text x="495.5" y="778.5">OrderStatus</text></g><rect x="426" y="787" width="140" height="26" fill="#7ea6e0" stroke="#000000" pointer-events="none"/><g fill="#000000" font-family="Helvetica" pointer-events="none" clip-path="url(#mx-clip-430-792-132-26-0)" font-size="12px"><text x="431.5" y="804.5">CREATED</text></g><rect x="426" y="813" width="140" height="26" fill="#7ea6e0" stroke="#000000" pointer-events="none"/><g fill="#000000" font-family="Helvetica" pointer-events="none" clip-path="url(#mx-clip-430-818-132-26-0)" font-size="12px"><text x="431.5" y="830.5">PAID</text></g><rect x="426" y="839" width="140" height="26" fill="#7ea6e0" stroke="#000000" pointer-events="none"/><g fill="#000000" font-family="Helvetica" pointer-events="none" clip-path="url(#mx-clip-430-844-132-26-0)" font-size="12px"><text x="431.5" y="856.5">SHIPPED</text></g><rect x="426" y="865" width="140" height="26" fill="#7ea6e0" stroke="#000000" pointer-events="none"/><g fill="#000000" font-family="Helvetica" pointer-events="none" clip-path="url(#mx-clip-430-870-132-26-0)" font-size="12px"><text x="431.5" y="882.5">DELIVERED</text></g><rect x="426" y="891" width="140" height="26" fill="#7ea6e0" stroke="#000000" pointer-events="none"/><g fill="#000000" font-family="Helvetica" pointer-events="none" clip-path="url(#mx-clip-430-896-132-26-0)" font-size="12px"><text x="431.5" y="908.5">CLOSED</text></g><path d="M 0 455 L 0 429 L 140 429 L 140 455" fill="#7ea6e0" stroke="#000000" stroke-miterlimit="10" pointer-events="none"/><path d="M 0 455 L 0 533 L 140 533 L 140 455" fill="none" stroke="#000000" stroke-miterlimit="10" pointer-events="none"/><path d="M 0 455 L 140 455" fill="none" stroke="#000000" stroke-miterlimit="10" pointer-events="none"/><g fill="#000000" font-family="Helvetica" pointer-events="none" text-anchor="middle" font-size="12px"><text x="69.5" y="446.5">CartStatus</text></g><rect x="0" y="455" width="140" height="26" fill="#7ea6e0" stroke="#000000" pointer-events="none"/><g fill="#000000" font-family="Helvetica" pointer-events="none" clip-path="url(#mx-clip-4-460-132-26-0)" font-size="12px"><text x="5.5" y="472.5">NEW</text></g><rect x="0" y="481" width="140" height="26" fill="#7ea6e0" stroke="#000000" pointer-events="none"/><g fill="#000000" font-family="Helvetica" pointer-events="none" clip-path="url(#mx-clip-4-486-132-26-0)" font-size="12px"><text x="5.5" y="498.5">CANCELLED</text></g><rect x="0" y="507" width="140" height="26" fill="#7ea6e0" stroke="#000000" pointer-events="none"/><g fill="#000000" font-family="Helvetica" pointer-events="none" clip-path="url(#mx-clip-4-512-132-26-0)" font-size="12px"><text x="5.5" y="524.5">CONFIRMED</text></g><path d="M 70 569.01 L 70 535.24" fill="none" stroke="#000000" stroke-miterlimit="10" pointer-events="none"/><path d="M 70 580.01 L 66.76 574.51 L 70 569.01 L 73.24 574.51 Z" fill="#000000" stroke="#000000" stroke-miterlimit="10" pointer-events="none"/><path d="M 75.5 545.12 L 70 534.12 L 64.5 545.12" fill="none" stroke="#000000" stroke-miterlimit="10" pointer-events="none"/><path d="M 0 607 L 0 581 L 140 581 L 140 607" fill="#7ea6e0" stroke="#000000" stroke-miterlimit="10" pointer-events="none"/><path d="M 0 607 L 0 659 L 140 659 L 140 607" fill="none" stroke="#000000" stroke-miterlimit="10" pointer-events="none"/><path d="M 0 607 L 140 607" fill="none" stroke="#000000" stroke-miterlimit="10" pointer-events="none"/><g fill="#000000" font-family="Helvetica" pointer-events="none" text-anchor="middle" font-size="12px"><text x="69.5" y="598.5">Cart</text></g><rect x="0" y="607" width="140" height="26" fill="#7ea6e0" stroke="#000000" pointer-events="none"/><g fill="#000000" font-family="Helvetica" pointer-events="none" clip-path="url(#mx-clip-4-612-132-26-0)" font-size="12px"><text x="5.5" y="624.5">- customer : Customer</text></g><rect x="0" y="633" width="140" height="26" fill="#7ea6e0" stroke="#000000" pointer-events="none"/><g fill="#000000" font-family="Helvetica" pointer-events="none" clip-path="url(#mx-clip-4-638-132-26-0)" font-size="12px"><text x="5.5" y="650.5">- status : CartStatus</text></g><path d="M 45 696.01 L 45 683 L 45 661.24" fill="none" stroke="#000000" stroke-miterlimit="10" pointer-events="none"/><path d="M 45 707.01 L 41.76 701.51 L 45 696.01 L 48.24 701.51 Z" fill="#000000" stroke="#000000" stroke-miterlimit="10" pointer-events="none"/><path d="M 50.5 671.12 L 45 660.12 L 39.5 671.12" fill="none" stroke="#000000" stroke-miterlimit="10" pointer-events="none"/><path d="M 0 734 L 0 708 L 140 708 L 140 734" fill="#7ea6e0" stroke="#000000" stroke-miterlimit="10" pointer-events="none"/><path d="M 0 734 L 0 890 L 140 890 L 140 734" fill="none" stroke="#000000" stroke-miterlimit="10" pointer-events="none"/><path d="M 0 734 L 140 734" fill="none" stroke="#000000" stroke-miterlimit="10" pointer-events="none"/><g fill="#000000" font-family="Helvetica" pointer-events="none" text-anchor="middle" font-size="12px"><text x="69.5" y="725.5">Customer</text></g><rect x="0" y="734" width="140" height="26" fill="#7ea6e0" stroke="#000000" pointer-events="none"/><g fill="#000000" font-family="Helvetica" pointer-events="none" clip-path="url(#mx-clip-4-739-132-26-0)" font-size="12px"><text x="5.5" y="751.5">- firstName : String</text></g><rect x="0" y="760" width="140" height="26" fill="#7ea6e0" stroke="#000000" pointer-events="none"/><g fill="#000000" font-family="Helvetica" pointer-events="none" clip-path="url(#mx-clip-4-765-132-26-0)" font-size="12px"><text x="5.5" y="777.5">- lastName : String</text></g><rect x="0" y="786" width="140" height="26" fill="#7ea6e0" stroke="#000000" pointer-events="none"/><g fill="#000000" font-family="Helvetica" pointer-events="none" clip-path="url(#mx-clip-4-791-132-26-0)" font-size="12px"><text x="5.5" y="803.5">- email : String</text></g><rect x="0" y="812" width="140" height="26" fill="#7ea6e0" stroke="#000000" pointer-events="none"/><g fill="#000000" font-family="Helvetica" pointer-events="none" clip-path="url(#mx-clip-4-817-132-26-0)" font-size="12px"><text x="5.5" y="829.5">- phone : String</text></g><rect x="0" y="838" width="140" height="26" fill="#7ea6e0" stroke="#000000" pointer-events="none"/><g fill="#000000" font-family="Helvetica" pointer-events="none" clip-path="url(#mx-clip-4-843-132-26-0)" font-size="12px"><text x="5.5" y="855.5">- carts : Set&lt;Cart&gt;</text></g><rect x="0" y="864" width="140" height="26" fill="#7ea6e0" stroke="#000000" pointer-events="none"/><g fill="#000000" font-family="Helvetica" pointer-events="none" clip-path="url(#mx-clip-4-869-132-26-0)" font-size="12px"><text x="5.5" y="881.5">- enabled : Boolean</text></g><path d="M 388.99 839 L 423.76 839" fill="none" stroke="#000000" stroke-miterlimit="10" pointer-events="none"/><path d="M 377.99 839 L 383.49 835.76 L 388.99 839 L 383.49 842.24 Z" fill="#000000" stroke="#000000" stroke-miterlimit="10" pointer-events="none"/><path d="M 413.88 844.5 L 424.88 839 L 413.88 833.5" fill="none" stroke="#000000" stroke-miterlimit="10" pointer-events="none"/><path d="M 341 762.01 L 341 742 L 493 742 L 493 714.24" fill="none" stroke="#000000" stroke-miterlimit="10" pointer-events="none"/><path d="M 341 773.01 L 337.76 767.51 L 341 762.01 L 344.24 767.51 Z" fill="#000000" stroke="#000000" stroke-miterlimit="10" pointer-events="none"/><path d="M 498.5 724.12 L 493 713.12 L 487.5 724.12" fill="none" stroke="#000000" stroke-miterlimit="10" pointer-events="none"/><path d="M 99 670.99 L 99 683 L 99 705.76" fill="none" stroke="#000000" stroke-miterlimit="10" pointer-events="none"/><path d="M 99 659.99 L 102.24 665.49 L 99 670.99 L 95.76 665.49 Z" fill="#000000" stroke="#000000" stroke-miterlimit="10" pointer-events="none"/><path d="M 93.5 695.88 L 99 706.88 L 104.5 695.88" fill="none" stroke="#000000" stroke-miterlimit="10" pointer-events="none"/><path d="M 189.01 839 L 171 839 L 171 620 L 142.24 620" fill="none" stroke="#000000" stroke-miterlimit="10" pointer-events="none"/><path d="M 200.01 839 L 194.51 842.24 L 189.01 839 L 194.51 835.76 Z" fill="#000000" stroke="#000000" stroke-miterlimit="10" pointer-events="none"/><path d="M 152.12 614.5 L 141.12 620 L 152.12 625.5" fill="none" stroke="#000000" stroke-miterlimit="10" pointer-events="none"/></g></svg>